<svg width="103" height="23" viewBox="0 0 103 23" fill="none" xmlns="http://www.w3.org/2000/svg">
<path d="M17.6905 22.6341C14.4433 22.6341 11.0774 22.6128 7.67182 22.5704L6.89962 22.5634C5.28594 22.5421 3.45446 22.5209 1.86058 22.4856C0.969591 22.4644 0.236999 21.9623 0.2172 21.3259C0.1974 20.6683 0.910192 20.1309 1.83088 20.1097C1.83088 20.1097 1.83088 20.1097 1.84078 20.1097C2.17738 20.1027 2.39518 19.8552 2.26648 19.636C1.40519 18.2006 0.959691 16.6308 0.959691 15.0257C0.959691 12.5297 2.02888 10.1397 4.04846 8.11036C5.79084 6.36384 8.12721 4.99915 10.8299 4.1365C10.8695 3.92437 10.9289 3.72638 11.018 3.54961C11.3249 2.9203 11.81 2.10007 12.7802 1.39297C14.0473 0.466682 15.7303 0 17.7895 0C19.8586 0 21.5614 0.480824 22.8384 1.42126C24.0264 2.29805 24.4224 3.29506 24.5412 3.67689C24.5808 3.82538 24.6105 3.98801 24.6303 4.17892C27.3033 5.05572 29.6001 6.41334 31.3128 8.14572C33.3125 10.168 34.3718 12.5438 34.3718 15.0257C34.3718 16.6379 33.9263 18.2147 33.065 19.6713C32.9462 19.8764 33.1442 20.1097 33.461 20.1168C33.4709 20.1168 33.4709 20.1168 33.4808 20.1168C34.3718 20.138 35.1044 20.6401 35.1242 21.2764C35.144 21.934 34.4312 22.4714 33.5105 22.4926C31.8374 22.528 30.006 22.5563 27.927 22.5846C24.5313 22.627 21.2347 22.6482 18.1162 22.6482L17.6905 22.6341Z" fill="white"/>
<path d="M12.365 5.0625L9.61279 6.05243L7.73182 7.07065L5.63304 8.72524L4.37575 10.1748L3.52436 11.6243L2.85117 13.7597L2.77197 15.6901L3.12837 17.4296L3.86096 19.3599L5.64294 21.3044H29.8383L31.2242 19.2892L32.234 17.3376L32.5904 14.4173L31.9568 11.9496L30.848 10.0263L29.2641 8.3222L27.3435 6.91509L25.6902 5.89687L22.9083 5.17563L12.365 5.0625Z" fill="#008BCA"/>
<path d="M32.2834 16.341C32.3725 15.9238 32.323 15.5632 32.1151 15.2379C31.8478 14.8278 31.3628 14.5308 30.749 14.3894C29.5709 14.1278 25.9871 12.7277 23.7695 11.8156C23.5913 11.7025 23.423 11.5964 23.2646 11.5045L23.2943 11.257C23.5814 10.8115 23.8091 10.3378 23.9774 9.84281C24.017 9.81452 24.0566 9.78624 24.0962 9.75795C24.5318 9.43269 24.8486 8.95187 24.9278 8.5064C25.5614 7.68617 25.6208 6.7316 25.4426 6.04571L23.621 5.23963C23.621 5.23963 23.3141 5.18306 22.8587 5.09821C22.7894 5.08407 22.9676 5.25377 22.7003 5.94672C22.6607 6.04571 22.6607 7.071 22.6211 7.18413C22.5617 7.3397 22.6112 8.30134 22.5419 8.47105C22.5023 8.57711 22.433 9.27006 22.3934 9.3832C22.3241 9.56704 21.938 10.2105 21.8687 10.4014C21.7994 10.5853 21.6312 11.1226 21.5718 11.3136C21.5223 11.462 21.552 12.1338 21.4926 12.2823C21.4134 12.5156 22.4033 12.2681 22.3142 12.4944C22.2548 12.6641 23.3042 13.1661 23.5121 13.2439C25.3139 13.9439 26.1653 14.2056 26.0663 14.0995L27.6404 14.743C28.868 15.2096 29.7293 15.3652 30.4916 15.5985C30.5708 15.8107 30.6401 16.1854 30.6401 16.7228L31.0163 17.8471L31.3925 18.8158L31.9666 17.9956L32.3428 16.6097L32.2834 16.341Z" fill="#047FA6"/>
<path d="M6.48452 21.3326H7.26661C7.6923 21.3326 9.08818 21.2901 9.71188 21.2901C10.5831 21.2901 12.5234 21.3326 12.9689 21.3326H13.9094C14.3153 21.3326 15.8696 21.3043 16.4537 21.3043C16.8596 21.3043 17.8397 21.3326 18.0575 21.3326H18.998C19.2455 21.3326 20.6512 21.3184 21.0175 21.3184C21.5818 21.3184 22.8589 21.3326 23.146 21.3326H24.8983C25.027 21.3326 25.5121 21.3326 25.6408 21.3326H26.4625C26.6902 21.3326 27.4327 21.3326 27.6505 21.3326H28.4721C28.5315 21.3326 28.7691 21.3326 28.8285 21.3326H29.5908L30.1848 20.8164L31.3431 19.1971L30.6006 16.6799L30.5115 15.6263L27.3931 14.594L24.4528 13.4414L22.5322 12.7343L21.5125 12.2959L13.8995 12.4161L13.5431 12.4868L12.5432 12.9181L11.1078 13.6394L8.73179 14.2828L5.81132 15.2657L5.33613 15.6334V16.0788L5.20743 16.4819L4.09865 19.1406L3.98975 19.3103L5.64303 21.3184C5.98952 21.3255 6.38552 21.3326 6.48452 21.3326Z" fill="#293F6E"/>
<path d="M27.5217 18.3132C27.5217 18.3132 27.393 20.4981 28.6998 21.283C28.8483 21.3749 26.6208 21.283 26.6208 21.283L26.7297 20.2577L27.5217 18.3132Z" fill="#203456"/>
<path d="M12.83 6.27859L12.5528 5.3028L12.6023 3.86033L13.3547 2.83504L14.6714 1.85218L16.1366 1.39964L18.1165 1.19458L19.7005 1.42085L20.9776 1.88046L22.0567 2.69362L22.8289 3.57042L22.9279 4.66641L22.7101 5.9604L23.3833 5.74827L23.6605 6.00282L23.7793 6.75941L23.6407 7.44529L23.0269 8.20188V8.75342L22.5022 9.06454L22.1557 9.89184L21.4825 11.1788L20.6608 11.8293L20.2351 12.204L19.2451 12.9182L17.483 12.9889L15.8495 12.6495L14.8496 11.8363L13.7408 10.804L13.1072 9.17767L12.6815 8.97262L12.3647 8.65442V8.16653L11.7905 7.18367L11.7014 6.27152L12.0281 5.79776L12.4538 5.83312L12.83 6.27859Z" fill="#FFCDAF"/>
<path d="M23.5717 5.89749L22.8589 5.74193L22.9282 4.1934L22.4827 3.08326L21.2254 2.00141L19.8889 1.48523L17.9584 1.20239L16.5427 1.25896L15.929 1.45695C18.9781 1.69029 21.3244 3.55701 19.2058 6.47024C19.2058 6.47024 18.5722 6.73186 18.0475 6.71065C18.0475 6.71065 17.9188 7.02884 18.3049 7.19147C18.3049 7.19147 18.9583 9.98449 17.2951 10.0481L16.5329 9.96328L16.2953 9.82893C16.2953 9.82893 16.5229 10.2744 16.8892 10.2744C16.8892 10.2744 17.1466 10.5502 17.7208 10.5643C17.8693 10.5643 17.4139 10.9108 17.6119 10.8684C17.6119 10.8684 18.5524 10.9603 17.8 11.632C17.4832 11.625 17.1466 11.5755 16.7902 11.4765C16.7407 11.4623 16.7011 11.5047 16.7407 11.533C16.8793 11.6462 17.7901 11.6108 17.206 11.9573C17.0278 12.0351 17.107 12.1553 17.2753 12.1341C17.3545 12.127 17.4238 12.1199 17.503 12.1199C17.6416 12.1058 17.8099 12.1694 17.9485 12.1765L18.4336 12.9401L19.6117 12.7351L19.9582 12.4381L21.1363 12.3603L21.5224 12.0068L21.3838 11.0027L21.9976 10.1896L22.4728 9.0087L22.7599 8.91678L23.1559 8.16726L23.7301 7.08541L23.5717 5.89749Z" fill="#EBBBA1"/>
<path d="M17.2556 7.80711C17.2556 7.80711 17.1863 7.60913 17.2061 7.41821C17.2061 7.41821 16.9388 7.53842 16.8002 7.75762C16.5725 7.62327 16.1468 7.46064 15.6419 7.47478C15.0578 7.48892 14.642 7.67984 14.4044 7.75055C14.345 7.76469 14.345 7.82833 14.4044 7.84247C14.741 7.93439 15.4934 8.11824 16.2557 8.07581C16.2557 8.07581 16.4537 8.08288 16.7012 8.07581C16.8101 8.15359 16.9784 8.33743 16.8893 8.6627C16.7705 9.07988 16.2062 9.17181 16.1567 9.56071L16.1369 9.58192C16.1072 9.6102 16.0676 9.63849 16.0181 9.66677C15.929 9.71627 15.83 9.75162 15.7211 9.79405C15.5132 9.87183 15.2855 9.95668 15.0974 10.084C14.9093 10.2112 14.7806 10.3739 14.7311 10.5436C14.6816 10.7133 14.7113 10.883 14.7806 11.0385C14.8103 10.8759 14.84 10.7203 14.9192 10.5719C14.9885 10.4304 15.1073 10.3032 15.2657 10.1971C15.4241 10.091 15.6221 9.99911 15.8201 9.90011C15.9191 9.85062 16.0181 9.79405 16.0973 9.72334C16.1171 9.7092 16.127 9.69505 16.1369 9.68091C16.1369 9.70213 16.1468 9.73041 16.1468 9.75869C16.2359 10.1122 16.3943 9.75869 16.3943 9.75869C16.3943 9.75869 16.3052 9.09403 17.2358 9.07281L17.1863 8.37279L17.2556 7.80711Z" fill="#EBBBA1"/>
<path d="M13.9588 7.27636C13.9093 7.29051 13.8598 7.24805 13.8994 7.21975C14.0875 7.04285 14.5429 6.72442 15.3151 6.7598C16.0576 6.79518 16.1071 6.97208 16.711 7.057C16.8793 7.07823 16.9288 7.2339 16.8001 7.30466C16.7209 7.34712 16.5724 7.41081 16.4239 7.41081C15.919 7.41081 15.6319 7.15606 15.1468 7.12776C14.8201 7.10653 14.4043 7.13484 13.9588 7.27636Z" fill="#EBBBA1"/>
<path d="M15.8992 9.60889C15.8992 9.64424 15.8992 9.68667 15.8794 9.72202C15.8596 9.75738 15.8299 9.79273 15.7903 9.82102C15.721 9.87758 15.6319 9.92001 15.5429 9.96244C15.3647 10.0402 15.1964 10.1039 15.0578 10.1887C14.9192 10.2736 14.8004 10.3796 14.7311 10.4998C14.6519 10.62 14.6024 10.7615 14.5628 10.9029C14.5232 10.7615 14.5232 10.6059 14.5826 10.4574C14.642 10.3089 14.7608 10.1675 14.9291 10.0685C15.0974 9.96951 15.2954 9.90587 15.4736 9.8493C15.5627 9.82102 15.6517 9.79273 15.7309 9.75738C15.7705 9.73617 15.8002 9.71495 15.8299 9.69374L15.8497 9.67253C15.8596 9.66546 15.8596 9.65838 15.8695 9.65131C15.8794 9.64424 15.8893 9.6301 15.8992 9.60889Z" fill="#272A24"/>
<path d="M19.4631 9.60889C19.473 9.62303 19.4829 9.64424 19.4928 9.65838C19.5027 9.66546 19.5027 9.67253 19.5126 9.6796L19.5324 9.70081C19.5621 9.72909 19.5918 9.75031 19.6314 9.76445C19.7106 9.7998 19.7997 9.82809 19.8888 9.85637C20.067 9.91294 20.265 9.96951 20.4333 10.0756C20.6016 10.1746 20.7303 10.316 20.7798 10.4645C20.8392 10.613 20.8392 10.7615 20.7996 10.9099C20.76 10.7685 20.7105 10.6271 20.6313 10.5069C20.5521 10.3796 20.4432 10.2806 20.3046 10.1958C20.166 10.1109 19.9878 10.0473 19.8195 9.96951C19.7304 9.92708 19.6413 9.88466 19.572 9.82809C19.5324 9.7998 19.5027 9.76445 19.4829 9.72909C19.4631 9.68667 19.4532 9.64424 19.4631 9.60889Z" fill="#272A24"/>
<path d="M17.7408 10.3935C17.424 10.3935 17.2458 10.2804 17.127 10.2097C17.0676 10.1743 17.0379 10.1531 17.0181 10.1531C16.5924 10.146 16.2954 10.0117 16.1964 9.79246C16.137 9.67225 16.2657 9.51669 16.3845 9.41063C16.3944 9.39649 16.4142 9.39648 16.4241 9.39648C16.434 9.39648 16.4538 9.40356 16.4637 9.41063C16.4736 9.4177 16.4736 9.42477 16.4736 9.43184C16.4637 9.55912 16.4736 9.65811 16.5132 9.72175C16.5924 9.84196 16.7706 9.91267 17.0379 9.91974C17.1765 9.91974 17.2656 9.97631 17.3547 10.0329C17.4537 10.0965 17.5626 10.1602 17.7606 10.1602C17.9486 10.1602 18.0377 10.1036 18.1268 10.0541C18.206 10.0117 18.2951 9.96217 18.4139 9.96217H18.4436C18.6614 9.96217 18.8297 9.89853 18.9584 9.77832C19.0178 9.71468 19.0574 9.61569 19.0673 9.46719C19.0673 9.44598 19.097 9.43891 19.1168 9.43891C19.1267 9.43891 19.1465 9.43891 19.1564 9.46012C19.2455 9.5874 19.3445 9.76418 19.2554 9.88439C19.1168 10.0894 18.8198 10.2097 18.4535 10.2097C18.4436 10.2097 18.4139 10.2097 18.4139 10.2097H18.404C18.3842 10.2167 18.3644 10.2309 18.3248 10.2521C18.206 10.2945 18.0377 10.3935 17.7408 10.3935Z" fill="#272A24"/>
<path d="M17.1069 9.36903C17.1465 9.22054 17.1663 9.07205 17.1762 8.92356C17.1762 8.77507 17.1663 8.63365 17.1564 8.48516C17.1465 8.33667 17.1267 8.18818 17.1366 8.03262C17.1465 7.87706 17.1663 7.7215 17.2455 7.58008C17.2653 7.73564 17.295 7.87706 17.3247 8.02555C17.3544 8.17404 17.3841 8.32253 17.394 8.47809C17.4039 8.63365 17.4039 8.78921 17.3643 8.94477C17.3247 9.09326 17.2455 9.24882 17.1069 9.36903Z" fill="#272A24"/>
<path d="M13.9192 7.06612C13.8697 7.08034 13.8202 7.03769 13.8598 7.00926C14.0479 6.84579 14.4835 6.61834 15.2656 6.66099C16.018 6.70364 16.0675 6.87422 16.6912 6.95951C16.8595 6.98083 16.9486 7.05902 16.81 7.12298C16.7308 7.16563 16.6318 7.19406 16.4833 7.18695C15.9685 7.17985 15.721 6.99505 15.226 6.9524C14.8894 6.93819 14.3746 6.94529 13.9192 7.06612Z" fill="#272A24"/>
<path d="M13.9092 11.1646V12.1545L15.6912 12.7343L14.82 11.7019L13.9092 11.1646Z" fill="#EBBBA1"/>
<path d="M12.9293 6.48445L12.4541 5.78442L11.8898 5.8622L11.7017 6.37838L11.6621 7.17033L12.4442 8.20268L12.365 8.76128L13.0679 9.05119L12.9095 8.25925L12.959 7.09255L12.9293 6.48445Z" fill="#EBBBA1"/>
<path d="M13.9092 12.2959L14.3547 15.4708L16.2951 15.3647L16.0179 14.6717L16.2357 14.3535L17.582 13.2505L15.5922 12.6707L13.9092 12.2959Z" fill="white"/>
<path d="M15.9584 1.53467C15.9584 1.53467 12.5232 2.85693 12.8301 5.60752L12.543 5.2964L12.4539 4.48325L12.9093 3.38018L14.0873 2.19934L15.206 1.53467H15.9584V1.53467Z" fill="white"/>
<path d="M7.86048 16.864C7.82088 17.3448 8.14757 20.3429 7.51398 20.8803C7.41498 20.9651 7.13779 21.1136 6.86059 21.2621C6.4943 21.453 8.73166 21.3541 8.73166 21.3541L8.50397 19.4732L7.86048 16.864Z" fill="#203456"/>
<path d="M13.6914 12.6642C13.6914 12.6642 11.8105 13.4562 10.9591 14.9057L10.7017 14.6936L11.2066 13.9087L12.0282 13.1946L13.4142 12.6077L13.6914 12.6642Z" fill="white"/>
<path d="M11.1573 13.7598C11.1573 13.7598 5.94994 15.3366 5.76184 15.7255C5.57374 16.1144 5.76184 16.3761 5.76184 16.3761L5.26685 15.9306L5.42524 15.5488L6.22714 15.1104L7.95962 14.4881L10.692 13.6255L11.0187 13.6396L11.1573 13.7598Z" fill="white"/>
<path d="M14.2559 7.61722L15.1171 7.41821L16.0477 7.52483L16.1665 7.77359L15.6418 7.80913H14.9587L14.2559 7.61722Z" fill="white"/>
<path d="M16.5822 7.76457C16.4139 7.63012 15.9585 7.33998 15.3546 7.36121C14.7705 7.38952 14.3745 7.52397 14.1369 7.60181C14.0775 7.62304 14.0775 7.67965 14.1468 7.6938C14.4834 7.77872 15.2457 7.94148 16.008 7.88487L15.7506 7.98393C15.7209 7.99101 15.7407 8.02639 15.7704 8.01932C15.9486 8.00516 16.2852 7.96271 16.5723 7.86364C16.6118 7.84241 16.6217 7.79287 16.5822 7.76457ZM14.7804 7.56643C14.8398 7.5452 14.9388 7.51689 15.0675 7.48859C15.0873 7.48151 15.1071 7.49566 15.0972 7.50982C15.0873 7.53105 15.0873 7.55227 15.0873 7.5735C15.0873 7.62304 15.1071 7.6655 15.1368 7.70088C15.1467 7.70796 15.1368 7.71503 15.1269 7.71503C15.0081 7.6938 14.8794 7.65842 14.7705 7.60889C14.7507 7.60889 14.7507 7.58058 14.7804 7.56643ZM16.107 7.72211C16.0476 7.73626 15.9387 7.75041 15.81 7.75749C15.7902 7.75749 15.7803 7.74334 15.7902 7.73626C15.8397 7.68673 15.8595 7.63012 15.8595 7.56643C15.8595 7.55935 15.8595 7.5452 15.8595 7.53812C15.9486 7.5735 16.0377 7.61596 16.1268 7.67257C16.1466 7.68673 16.1367 7.71503 16.107 7.72211Z" fill="#272A24"/>
<path d="M21.1659 7.61012L20.3145 7.41821L19.374 7.52483L19.2651 7.77359L19.7799 7.80913H20.4729L21.1659 7.61012Z" fill="white"/>
<path d="M18.9088 7.87047C19.1959 7.96954 19.5226 8.012 19.7107 8.02615C19.7404 8.02615 19.7503 7.99785 19.7305 7.99077L19.4731 7.8917C20.2354 7.94831 20.9977 7.78556 21.3343 7.70064C21.3937 7.68649 21.3937 7.6228 21.3343 7.60865C21.1066 7.53788 20.7106 7.39636 20.1166 7.37513C19.5127 7.3539 19.0573 7.64403 18.889 7.77848C18.8395 7.79971 18.8593 7.84924 18.9088 7.87047ZM20.6908 7.61572C20.5819 7.66526 20.4631 7.70064 20.3344 7.72187C20.3245 7.72187 20.3146 7.71479 20.3146 7.70772C20.3443 7.67233 20.3641 7.6228 20.3641 7.58034C20.3641 7.55911 20.3641 7.53788 20.3542 7.51666C20.3542 7.5025 20.3641 7.48835 20.3839 7.49543C20.5126 7.51665 20.6116 7.55204 20.671 7.56619C20.7106 7.57327 20.7106 7.60157 20.6908 7.61572ZM19.3444 7.67233C19.4335 7.61572 19.5226 7.56619 19.6117 7.53788C19.6117 7.54496 19.6117 7.55911 19.6117 7.56619C19.6117 7.62988 19.6315 7.68649 19.681 7.73602C19.6909 7.7431 19.681 7.75725 19.6612 7.75725C19.5325 7.75017 19.4236 7.73602 19.3642 7.72187C19.3246 7.71479 19.3147 7.68649 19.3444 7.67233Z" fill="#272A24"/>
<path d="M17.7703 10.9822C18.5424 10.9822 18.8691 11.0675 19.2255 11.0675C19.5324 11.0675 19.8294 10.9538 19.8294 10.9538C19.8987 10.9893 20.0274 10.9253 20.0472 10.8756C20.067 10.8187 19.8096 10.6624 19.7898 10.7405C19.77 10.8187 19.5423 10.9182 19.3938 10.9182C19.2354 10.9182 18.7701 10.6624 18.4434 10.6481C18.2949 10.641 18.0276 10.6908 17.8791 10.7192C17.8098 10.7334 17.7405 10.7334 17.6614 10.7192C17.5129 10.6908 17.2456 10.641 17.0971 10.6481C16.7704 10.6624 16.3051 10.9182 16.1467 10.9182C15.9883 10.9182 15.7705 10.8187 15.7507 10.7405C15.7309 10.6624 15.4735 10.8187 15.4933 10.8756C15.5131 10.9325 15.6517 10.9893 15.7111 10.9538C15.7111 10.9538 16.0081 11.0675 16.315 11.0675C16.6714 11.0675 16.9981 10.9822 17.7703 10.9822Z" fill="#272A24"/>
<path d="M19.1066 11.264C19.1363 11.2427 19.0967 11.2074 19.0571 11.2215C18.6116 11.356 18.176 11.3984 17.7998 11.3913C17.4236 11.3984 16.998 11.363 16.5723 11.2357C16.5228 11.2215 16.4832 11.264 16.5228 11.2923C16.6713 11.4055 16.9287 11.5682 17.3048 11.6532C17.285 11.6602 17.2553 11.6602 17.2355 11.6673C17.1563 11.6885 17.0871 11.7168 17.0079 11.7452C16.8297 11.823 16.8792 11.8442 17.0475 11.823C17.1266 11.8159 17.1959 11.8018 17.2751 11.7947C17.4236 11.7805 17.5721 11.7735 17.7206 11.7735C17.8691 11.7735 18.0176 11.7805 18.1661 11.7947C18.275 11.8018 18.3839 11.8159 18.5027 11.8371C18.5423 11.8442 18.5621 11.8088 18.5324 11.7947C18.4433 11.7452 18.3443 11.7027 18.2354 11.6744C18.6611 11.5753 18.9581 11.3772 19.1066 11.264Z" fill="#272A24"/>
<path d="M11.6621 15.6905L10.6226 15.5349C10.4048 15.4996 10.2959 15.3299 10.4048 15.1955L10.7018 14.7925L11.0978 14.9127L12.3056 15.245L12.0779 15.5561L11.6621 15.6905Z" fill="#203456"/>
<path d="M17.4042 13.5481C17.0082 13.7743 16.6518 14.0289 16.3647 14.3188C16.2063 14.4673 16.1766 14.6653 16.2657 14.842L16.5726 15.4218L18.8297 15.4006L19.196 14.8632C19.3247 14.6723 19.295 14.4461 19.1168 14.2834C18.8 13.9935 18.3941 13.7602 17.9487 13.5339C17.7804 13.4561 17.5527 13.4632 17.4042 13.5481Z" fill="#BF3F4A"/>
<path d="M5.09839 16.7512C5.09839 16.7512 5.77157 17.1118 5.92007 18.0028C6.06856 18.8937 6.36556 17.4795 6.01906 16.9775C5.67257 16.4754 5.34588 16.3694 5.34588 16.3694L5.09839 16.7512Z" fill="#203456"/>
<path d="M17.6714 13.5829C17.6714 13.5829 18.6218 14.3324 18.5624 14.7354C18.4931 15.1385 17.8199 15.4142 17.8199 15.4142H18.998L19.5425 14.6577L18.8792 14.0708C18.8792 14.0708 18.2456 13.6536 18.2159 13.6324C18.1763 13.6112 17.6813 13.4768 17.6813 13.4768V13.5829H17.6714Z" fill="#A43447"/>
<path d="M21.552 7.06612C21.6015 7.08034 21.651 7.03769 21.6114 7.00926C21.4233 6.84579 20.9877 6.61834 20.2056 6.66099C19.4532 6.70364 19.4037 6.87422 18.7801 6.95951C18.6118 6.98083 18.5227 7.05902 18.6613 7.12298C18.7405 7.16563 18.8395 7.19406 18.988 7.18695C19.5027 7.17985 19.7502 6.99505 20.2452 6.9524C20.5818 6.93819 21.0966 6.94529 21.552 7.06612Z" fill="#272A24"/>
<path d="M9.56306 21.2414C10.4342 21.2414 12.3746 21.2838 12.8201 21.2838H13.7606C14.1665 21.2838 15.7208 21.2556 16.3049 21.2556C16.7108 21.2556 17.6909 21.2838 17.9087 21.2838H18.8491C19.0966 21.2838 20.5024 21.2697 20.8687 21.2697C21.433 21.2697 22.7101 21.2838 22.9972 21.2838H24.7495C24.8782 21.2838 25.3633 21.2838 25.492 21.2838H26.3137C26.4028 21.2838 26.5909 21.2838 26.7889 21.2838L27.6798 16.9989L27.8184 16.412L26.9968 15.9877L21.3637 15.4786L16.6415 15.3655L13.3448 15.4786L9.97885 15.7261L8.15727 16.1928L7.91968 16.7019L8.78097 21.2485C9.08786 21.2485 9.36506 21.2414 9.56306 21.2414Z" fill="#E0DFDC"/>
<path d="M19.067 15.3364L21.1559 15.4708L21.3143 14.1556L21.5222 12.2959L19.9283 12.4797L17.9978 13.307L19.6412 14.693L19.067 15.3364Z" fill="white"/>
<path d="M20.6313 15.542C20.6313 15.542 25.1357 16.1289 25.3832 17.7128C25.5911 19.0775 24.8091 20.5624 20.562 21.319C19.6017 21.4887 26.7197 21.2765 26.7197 21.2765L27.6305 16.9845L27.5612 16.2915L26.4029 15.839L22.6806 15.5915L20.6313 15.542Z" fill="#C3C3C3"/>
<path d="M20.7997 15.4716C20.7997 15.4716 8.57339 15.8888 7.92 16.709L7.8606 16.3838L8.21699 16.1363L9.27628 15.9383L11.6028 15.7262L15.3251 15.4575L18.8396 15.4292L20.7997 15.4716Z" fill="white"/>
<path d="M17.889 19.7277C18.5998 19.7277 19.176 19.3763 19.176 18.9428C19.176 18.5094 18.5998 18.158 17.889 18.158C17.1783 18.158 16.6021 18.5094 16.6021 18.9428C16.6021 19.3763 17.1783 19.7277 17.889 19.7277Z" fill="#C3C3C3"/>
<path d="M23.2252 15.4574L24.5122 15.21C24.73 15.1746 24.8389 15.0049 24.73 14.8706L24.433 14.4675L24.037 14.5877L22.9282 14.9766V15.2453L23.2252 15.4574Z" fill="#203456"/>
<path d="M17.9087 19.8906C17.1266 19.8906 16.4534 19.5158 16.3445 19.0209C16.2851 18.7593 16.4534 18.5542 16.6118 18.4269C16.9187 18.1653 17.4533 17.9814 17.9087 17.9814C18.3641 17.9814 18.8888 18.1653 19.2055 18.4269C19.354 18.5542 19.5322 18.7593 19.4728 19.0209C19.3639 19.5158 18.6908 19.8906 17.9087 19.8906ZM17.9087 18.236C17.5622 18.236 17.2355 18.335 17.0276 18.5047C16.8494 18.639 16.7702 18.8087 16.79 18.9785C16.8395 19.3532 17.3246 19.6361 17.9087 19.6361C18.4928 19.6361 18.9779 19.3532 19.0274 18.9785C19.0472 18.8087 18.968 18.639 18.7898 18.5047C18.5819 18.335 18.2552 18.236 17.9087 18.236Z" fill="#272A24"/>
<path d="M33.4616 21.1703C32.4023 21.1491 31.343 21.1279 30.2837 21.1137C31.9964 19.3106 32.8973 17.2176 32.8973 15.0257C32.8973 12.763 31.937 10.5922 30.1154 8.75373C28.3632 6.98599 25.9575 5.64959 23.1459 4.87178C23.1855 4.4546 23.1756 4.12933 23.1063 3.89599C23.037 3.66265 22.74 2.85657 21.7896 2.15654C20.7996 1.42824 19.4632 1.06055 17.8099 1.06055C16.1665 1.06055 14.8399 1.42116 13.8697 2.12826C13.0975 2.69393 12.7015 3.37274 12.4441 3.89599C12.3253 4.14348 12.2758 4.46167 12.3154 4.85057C9.48407 5.61423 7.05859 6.95064 5.28651 8.72544C3.44514 10.571 2.47495 12.7488 2.47495 15.0257C2.47495 17.2247 3.37584 19.3177 5.08852 21.1208C4.11833 21.1349 2.87094 21.1562 1.90075 21.1774C1.67306 21.1844 1.67306 21.4248 1.90075 21.4248C3.74213 21.4673 5.88051 21.4885 7.72189 21.5097C11.0878 21.5521 14.4538 21.5733 17.8198 21.5733C21.1857 21.5733 24.5517 21.5521 27.9177 21.5097C29.7689 21.4885 31.6301 21.4602 33.4814 21.4178C33.6794 21.4178 33.6893 21.1774 33.4616 21.1703ZM23.0568 5.37382C23.0667 5.34554 23.1063 5.32432 23.1459 5.33846C28.6305 6.92235 32.2934 10.776 32.2934 15.0257C32.2934 16.1146 32.0558 17.1681 31.6004 18.1722C31.5509 18.2854 31.3232 18.2783 31.2935 18.1651L30.7985 16.5105C30.7688 16.4186 30.7688 16.3196 30.7886 16.2206C30.8381 16.0156 30.8381 15.8317 30.749 15.6903C30.6599 15.556 30.5114 15.464 30.2936 15.4216C28.5315 15.0257 23.2449 12.8478 22.8588 12.6922C22.6113 12.5225 22.3638 12.374 22.1361 12.2538C21.849 12.1054 21.6906 11.8649 21.7203 11.6175L21.8094 10.974C22.1163 10.5356 22.4034 9.98407 22.5915 9.31233C22.6113 9.23455 22.6905 9.16384 22.7895 9.13556C22.8687 9.10727 22.938 9.07192 22.9974 9.02949C23.2647 8.83151 23.4429 8.48503 23.4231 8.29412C23.4231 8.23755 23.4429 8.17391 23.4924 8.12441C24.1062 7.45268 24.0765 6.55467 23.8884 6.0597C23.7993 5.8405 23.6607 5.69908 23.4726 5.64959C23.334 5.60716 23.1855 5.60716 23.0469 5.64959C23.0271 5.65666 23.0172 5.64959 23.0172 5.64959C23.0172 5.64959 23.0073 5.64251 23.0073 5.62837C23.0271 5.52938 23.037 5.4516 23.0568 5.37382ZM22.6509 15.3297L22.8093 15.4216C22.5618 15.4004 22.3044 15.3863 22.0569 15.3721C22.0074 15.3721 21.8787 15.3651 21.7104 15.3509C21.552 15.3438 21.4431 15.2448 21.453 15.1388C21.5619 14.1064 21.6114 13.2579 21.6411 12.7488C21.651 12.5791 21.9282 12.4872 22.1163 12.5932C22.3242 12.7135 22.5915 12.8832 22.8885 13.1024C23.7003 13.6892 24.1854 14.1842 24.2745 14.3681L22.7202 14.9054C22.4925 14.9903 22.4529 15.2166 22.6509 15.3297ZM22.8687 6.18698C22.8885 6.15162 23.1063 5.8405 23.3241 5.90414C23.3736 5.91828 23.4528 5.99606 23.5023 6.13041C23.6607 6.54759 23.7399 7.42439 23.0469 8.07492C23.0172 8.1032 22.9974 8.14563 23.0073 8.18098C23.037 8.30119 22.9083 8.66888 22.7004 8.81737C22.7598 8.47796 22.7994 8.13149 22.8093 7.77087C22.8093 7.67895 22.8885 7.59409 23.0073 7.56581L23.0172 7.55874C23.1063 7.53753 23.1657 7.46682 23.1459 7.39611C23.0766 7.12741 23.235 6.80922 23.334 6.64659C23.3538 6.61123 23.3439 6.56881 23.2944 6.5476C23.2746 6.53345 23.2449 6.53345 23.2251 6.53345C23.1954 6.53345 23.1756 6.54052 23.1558 6.55467C23.0766 6.59709 22.9974 6.63952 22.9083 6.68194C22.8786 6.69608 22.839 6.69608 22.8093 6.68194C22.7796 6.6678 22.7598 6.64659 22.7598 6.6183C22.7697 6.4981 22.8093 6.35668 22.8687 6.18698ZM12.8005 3.99499C13.1569 3.27375 14.1073 1.35046 17.7901 1.35046C19.3345 1.35046 20.5719 1.68986 21.4827 2.3616C22.3539 3.00506 22.6311 3.7475 22.6905 3.95963C22.8588 4.51824 22.6113 5.61423 22.4529 6.22233C22.4232 6.3284 22.4034 6.42032 22.3836 6.48396C22.3539 6.57588 22.3539 6.6678 22.3638 6.75972C22.3638 6.79508 22.3737 6.83043 22.3737 6.85872C22.5222 8.23755 22.1757 9.36183 21.8589 10.0548C21.7698 10.2598 21.6609 10.4649 21.5421 10.6558L21.5025 10.7124C21.255 11.1013 20.8887 11.3912 20.6313 11.568C20.6214 11.575 20.6115 11.575 20.6016 11.568C20.5917 11.568 20.5818 11.5609 20.5818 11.5538C20.5818 11.4973 20.5917 11.4336 20.5917 11.3629C20.5917 11.3275 20.5719 11.2922 20.5224 11.2781C20.4531 11.2568 20.3739 11.2781 20.3541 11.3275C20.166 11.7377 19.6414 12.6781 18.9385 12.6781C18.4336 12.6781 18.3148 12.5013 18.196 12.3246C18.1069 12.1831 18.0079 12.0417 17.7109 12.0417C17.3743 12.0417 17.2555 12.2114 17.1466 12.374C17.0278 12.5508 16.909 12.7135 16.5229 12.7135C16.513 12.7135 16.513 12.7135 16.5031 12.7135C15.8398 12.7064 15.2854 11.7165 15.0775 11.2922C15.0577 11.2568 15.0181 11.2356 14.9587 11.2356C14.9488 11.2356 14.9389 11.2356 14.9389 11.2356C14.8795 11.2427 14.8399 11.2781 14.8399 11.3275C14.8399 11.3558 14.8399 11.3841 14.8498 11.4124C14.8498 11.4336 14.83 11.4407 14.8201 11.4407C14.8102 11.4407 14.7904 11.4478 14.7706 11.4336C14.4835 11.2568 14.0875 10.974 13.8598 10.6417C13.5034 10.0406 13.2757 9.36183 13.1767 8.62645C13.0777 7.884 13.147 7.24055 13.1866 6.92943C13.1965 6.85872 13.2064 6.79508 13.2262 6.72437C13.2361 6.65366 13.2361 6.58295 13.1965 6.51224C13.1866 6.48396 13.1668 6.4486 13.147 6.41325C12.9787 6.04556 12.454 4.70915 12.8005 3.99499ZM21.057 13.5902L20.0769 14.4741C19.9977 14.5448 19.8492 14.5378 19.7899 14.467C19.4533 14.1064 18.9979 13.7953 18.4435 13.5125C18.3841 13.4842 18.4039 13.4135 18.4831 13.4064C19.1266 13.3357 19.6909 13.1094 20.0175 12.8195C20.2749 12.7559 20.562 12.671 20.8293 12.5862C21.0174 12.5296 21.2154 12.6286 21.2154 12.77C21.2154 12.9114 21.1758 13.2721 21.156 13.4347C21.1263 13.4983 21.0966 13.5478 21.057 13.5902ZM21.1263 14.2478C21.1065 14.5448 21.0669 14.9125 21.0174 15.3226C20.6214 15.3014 20.2551 15.2873 20.1957 15.2802C19.9185 15.2731 19.6414 15.2661 19.3642 15.259C19.4434 15.16 19.5226 15.061 19.5721 14.9974C19.6117 14.9549 19.6909 14.9408 19.7503 14.9832C19.8888 15.0822 20.1165 15.0681 20.2353 14.9549L20.9778 14.2125C21.0273 14.163 21.1263 14.1913 21.1263 14.2478ZM15.721 14.5448C15.6616 14.6085 15.5329 14.6085 15.4636 14.5519L14.4241 13.7175C14.3152 13.6256 14.2459 13.5195 14.236 13.3993C14.2063 13.1589 14.1865 12.9256 14.1667 12.7135C14.1568 12.6074 14.3251 12.5367 14.4538 12.5862C14.8102 12.7347 15.2854 12.8973 15.8398 13.0034C16.1071 13.1589 16.5526 13.3074 16.9486 13.364C17.0476 13.3781 17.0773 13.463 17.008 13.5125C16.5031 13.8448 16.0675 14.1913 15.721 14.5448ZM16.1368 15.259C15.9685 15.2661 15.8002 15.2661 15.6319 15.2731C15.5131 15.2802 14.9884 15.3014 14.533 15.3226C14.4934 14.9903 14.4538 14.5802 14.4241 14.3681C14.4241 14.3256 14.5033 14.3044 14.5429 14.3398L15.2755 14.9974C15.424 15.1246 15.6913 15.1317 15.8497 15.0115C15.8893 14.9762 15.9685 14.9832 15.9982 15.0257L16.1368 15.259ZM12.5035 15.1246L11.0482 14.7923C10.8899 14.757 10.8206 14.6297 10.9097 14.5236C11.4343 13.8872 12.1372 13.2721 13.147 12.8407C13.4242 12.7205 13.7806 12.8478 13.8103 13.0811C13.8697 13.668 13.9885 14.3963 14.1172 15.1034C14.137 15.2307 14.0083 15.3438 13.8301 15.358C13.8202 15.358 13.8103 15.358 13.8004 15.358C13.4242 15.3792 13.0381 15.4075 12.6619 15.4358C12.7609 15.3297 12.6916 15.1671 12.5035 15.1246ZM14.0776 11.6528L14.0578 11.4973C14.3053 11.7447 14.6023 11.9993 14.9587 12.2397C15.0577 12.3033 15.1369 12.374 15.2062 12.4518C14.8399 12.3246 14.5528 12.1761 14.3647 12.0559C14.1964 11.9569 14.0875 11.8084 14.0776 11.6528ZM16.5526 14.4317C16.8199 14.1701 17.1367 13.9438 17.503 13.7317C17.6416 13.6539 17.8495 13.6468 17.998 13.7175C18.4039 13.9155 18.7702 14.1347 19.0573 14.3963C19.2256 14.5448 19.2454 14.7499 19.1266 14.9267L18.9088 15.2448C18.5425 15.2378 18.1762 15.2378 17.8198 15.2378C17.4337 15.2378 17.0377 15.2448 16.6516 15.2448L16.4734 14.9054C16.3744 14.7499 16.414 14.5731 16.5526 14.4317ZM20.9085 12.1831C20.7897 12.2185 20.6808 12.2468 20.562 12.2751C20.562 12.2751 20.562 12.268 20.5521 12.268C20.5521 12.268 20.5521 12.268 20.5422 12.2609C20.7204 12.1336 21.0075 11.9074 21.3144 11.568L21.2748 11.8084C21.2748 11.9781 21.1263 12.1195 20.9085 12.1831ZM12.8302 6.66073C12.8203 6.68194 12.8005 6.69609 12.7807 6.70316C12.751 6.71023 12.7213 6.71023 12.6916 6.70316C12.5827 6.66073 12.4837 6.61123 12.3946 6.55467C12.355 6.53345 12.2956 6.53345 12.256 6.55467C12.2164 6.57588 12.1966 6.6183 12.2164 6.64659C12.3253 6.82336 12.4837 7.1557 12.3946 7.43146C12.3748 7.48803 12.4243 7.5446 12.5035 7.55874C12.5134 7.55874 12.5134 7.55874 12.5233 7.55874C12.6322 7.58702 12.7114 7.6648 12.7114 7.74965C12.7114 8.0537 12.7213 8.36483 12.7609 8.66181C12.7708 8.7113 12.7708 8.75373 12.7807 8.80322C12.7807 8.8103 12.7708 8.81737 12.7708 8.81737C12.7609 8.81737 12.751 8.81737 12.7411 8.8103C12.5332 8.66181 12.4144 8.28705 12.4342 8.16684C12.4441 8.12441 12.4243 8.08906 12.3946 8.05371C11.7115 7.40318 11.7808 6.52638 11.9491 6.11627C11.9986 5.98192 12.0778 5.90414 12.1273 5.89C12.1471 5.88293 12.1669 5.88293 12.1867 5.88293C12.3946 5.88293 12.5728 6.17284 12.5827 6.17284C12.652 6.30718 12.7906 6.57588 12.8302 6.66073ZM3.04914 15.0257C3.04914 10.7548 6.7319 6.89407 12.2659 5.32432C12.3154 5.31018 12.3748 5.33139 12.3847 5.37382C12.3946 5.43039 12.4144 5.5011 12.4243 5.55766C12.4342 5.60009 12.3847 5.63544 12.3253 5.62837C12.2164 5.61423 12.1075 5.6213 11.9986 5.64959C11.8105 5.70615 11.6719 5.84757 11.5828 6.0597C11.3848 6.55467 11.3551 7.41732 11.9491 8.09613C12.0184 8.16684 12.0481 8.25876 12.0481 8.34361C12.0382 8.55574 12.2362 8.85272 12.4837 9.02949C12.5431 9.07192 12.6124 9.10727 12.6817 9.13556C12.8005 9.17798 12.8797 9.25577 12.8995 9.34062C12.9985 9.78609 13.1767 10.3659 13.6222 10.974L13.7014 11.7801C13.7311 12.0346 13.5529 12.2751 13.2559 12.4094C12.7114 12.6498 12.2263 12.9114 11.8006 13.2084C10.4147 13.6044 5.98941 14.8913 5.37561 15.3368C5.07862 15.5489 5.03902 15.761 5.12812 15.9873C5.07862 16.1924 4.75192 17.3449 4.19753 18.5116C4.14803 18.6106 3.95993 18.6106 3.91043 18.5116C3.34614 17.4086 3.04914 16.2348 3.04914 15.0257ZM5.56371 20.8662C5.14792 20.4349 4.78162 19.9753 4.46482 19.5016C4.32623 19.2965 4.31633 19.0632 4.42522 18.851C4.83112 18.0379 5.13802 17.1894 5.31621 16.6378C5.34591 16.553 5.49441 16.5388 5.55381 16.6095C5.77161 16.857 6.00921 17.1257 6.14781 17.4439C6.16761 17.4934 6.2666 17.4793 6.2666 17.4298C6.2468 17.1469 6.1676 16.751 5.89041 16.4611C5.45481 16.0156 5.30631 15.7681 5.64291 15.5277C6.05871 15.2307 8.77128 14.3893 10.7612 13.8024C10.88 13.767 10.979 13.866 10.9097 13.9367C10.6721 14.1842 10.4642 14.4529 10.2959 14.7357C10.2365 14.8135 10.2959 14.9054 10.4147 14.9337L11.8699 15.2661C12.0382 15.3085 12.0184 15.4853 11.8402 15.4994C10.7315 15.5984 9.62267 15.7257 8.53368 15.8742C8.28618 15.9095 8.05848 16.0014 7.90009 16.1358C7.70209 16.3126 7.63279 16.5318 7.69219 16.751L8.56338 21.0642C8.27628 21.0642 7.99908 21.0713 7.71199 21.0713C7.21699 21.0784 6.722 21.0854 6.2171 21.0925C5.94981 21.1067 5.71221 21.0218 5.56371 20.8662ZM8.95937 21.0713L8.06838 16.7015C8.02878 16.56 8.07828 16.4186 8.21688 16.3126C8.30598 16.2348 8.44458 16.1853 8.59308 16.1641C11.6422 15.7398 14.7409 15.5206 17.8198 15.5206C20.8986 15.5206 23.9973 15.7327 27.0465 16.1641C27.195 16.1853 27.3336 16.2419 27.4227 16.3126C27.5514 16.4186 27.6108 16.56 27.5712 16.7015L26.5812 21.0713C23.6508 21.043 20.7204 21.0218 17.7901 21.0218C14.8498 21.0218 11.8996 21.0359 8.95937 21.0713ZM27.3534 21.0784C27.1554 21.0784 27.0168 20.9511 27.0465 20.8167L27.9573 16.758C28.0266 16.5247 27.9276 16.2913 27.6999 16.1075C27.5514 15.9873 27.3435 15.9166 27.1158 15.8812C26.0169 15.7257 24.9081 15.6055 23.7993 15.5065C23.6211 15.4923 23.4528 15.4358 23.3142 15.358L23.1954 15.2873C23.0766 15.2166 23.0964 15.0893 23.235 15.0398C23.235 15.0398 24.4032 14.7145 24.6705 14.4953C24.7596 14.4175 24.7101 14.2549 24.3042 13.8519C24.2844 13.8307 24.2547 13.8024 24.2349 13.7812C24.1458 13.6963 24.2844 13.5832 24.4131 13.6397C26.2347 14.3681 28.967 15.4146 30.1748 15.6832C30.3134 15.7115 30.3629 15.7681 30.3926 15.8035C30.5609 16.0721 30.1748 16.7156 29.8085 17.3378C29.5115 17.8328 29.1848 18.3843 29.0165 18.9076C28.9967 18.9783 29.1254 19.0137 29.1749 18.95C29.462 18.5399 29.9273 17.854 30.1649 17.451C30.2144 17.3661 30.2639 17.2884 30.3134 17.2035C30.3728 17.1045 30.5807 17.1186 30.6104 17.2247L31.0361 18.6743C31.1054 18.9147 31.0757 19.1692 30.9272 19.3884C30.6005 19.8905 30.2243 20.3713 29.7986 20.8238C29.6402 21.0006 29.363 21.0996 29.066 21.0925C28.67 21.0854 28.284 21.0854 27.888 21.0784C27.7098 21.0784 27.5316 21.0784 27.3534 21.0784Z" fill="#272A24"/>
<path d="M41.1142 14.9752C40.6983 15.1492 39.8223 15.3324 39.1144 15.3324C38.0083 15.3324 37.1676 15.0119 36.5305 14.3434C35.6988 13.501 35.2563 12.0268 35.2829 10.2961C35.3271 6.65173 37.3358 5.14087 39.3887 5.14087C40.1231 5.14087 40.6629 5.28738 40.9726 5.44304L40.6452 7.11873C40.3709 6.97222 39.9992 6.88981 39.5391 6.88981C38.2649 6.88981 37.2473 7.80549 37.2473 10.406C37.2473 12.8142 38.1498 13.6841 39.0259 13.6841C39.194 13.6841 39.3267 13.6658 39.3975 13.6292V11.221H38.5303V9.62769H41.123V14.9752H41.1142Z" fill="white"/>
<path d="M42.53 5.22778H44.4148V13.5879H46.8925V15.2361H42.53V5.22778Z" fill="white"/>
<path d="M53.2988 10.0584C53.2988 13.831 52.0069 15.3602 50.1663 15.3602C47.9807 15.3602 47.1135 12.9611 47.1135 10.2141C47.1135 7.47624 48.1665 5.11379 50.3079 5.11379C52.6351 5.10464 53.2988 7.7601 53.2988 10.0584ZM49.0691 10.2324C49.0691 12.5033 49.4761 13.6662 50.2371 13.6662C51.0335 13.6662 51.3344 12.1737 51.3344 10.15C51.3344 8.38276 51.0778 6.79864 50.2283 6.79864C49.4761 6.79864 49.0691 8.08058 49.0691 10.2324Z" fill="white"/>
<path d="M58.2986 12.9561L57.8739 15.2453H56.051L58.1482 5.22778H60.4046L62.2894 15.2361H60.4577L60.0418 12.9469H58.2986V12.9561ZM59.8737 11.4452L59.5551 9.34832C59.4578 8.74398 59.3339 7.73673 59.2366 7.07745H59.2012C59.095 7.74589 58.9534 8.78061 58.8561 9.35748L58.5021 11.4452H59.8737Z" fill="white"/>
<path d="M67.7398 15.0877C67.4654 15.2159 66.9434 15.3258 66.2886 15.3258C63.8198 15.3258 62.634 13.2197 62.634 10.3811C62.634 6.60852 64.6604 5.13428 66.5363 5.13428C67.2 5.13428 67.6601 5.27163 67.8548 5.39982L67.5451 7.03889C67.3239 6.929 67.085 6.83744 66.6691 6.83744C65.5984 6.83744 64.6339 7.7989 64.6339 10.2712C64.6339 12.6611 65.5099 13.5951 66.6514 13.5951C66.9699 13.5951 67.3327 13.5219 67.5539 13.4486L67.7398 15.0877Z" fill="white"/>
<path d="M70.5364 12.9561L70.1117 15.2453H68.2888L70.386 5.22778H72.6424L74.5272 15.2361H72.6955L72.2796 12.9469H70.5364V12.9561ZM72.1115 11.4452L71.7929 9.34832C71.6956 8.74398 71.5717 7.73673 71.4744 7.07745H71.439C71.3328 7.74589 71.1912 8.78061 71.0939 9.35748L70.7399 11.4452H72.1115Z" fill="white"/>
<path d="M75.5798 5.37222C76.0488 5.26234 76.739 5.17993 77.4912 5.17993C78.7123 5.17993 79.5618 5.47295 80.1812 6.06814C81.0129 6.83731 81.4377 8.16504 81.4377 10.1063C81.4377 12.1391 80.9333 13.5675 80.0927 14.3459C79.429 14.996 78.4822 15.3165 77.1372 15.3165C76.5443 15.3165 75.9515 15.2524 75.5798 15.2066V5.37222ZM77.4558 13.6957C77.5531 13.7232 77.6947 13.7232 77.792 13.7232C78.7034 13.7232 79.491 12.8075 79.491 10.0422C79.491 7.9819 78.9777 6.73658 77.8363 6.73658C77.7035 6.73658 77.5796 6.74574 77.4558 6.78237V13.6957Z" fill="white"/>
<path d="M86.7116 10.8409H84.5083V13.5513H86.9948V15.2361H82.6235V5.22778H86.8267V6.91263H84.5083V9.21097H86.7116V10.8409Z" fill="white"/>
<path d="M94.1978 11.7364C94.1447 10.775 94.0916 9.49301 94.1093 8.41251H94.0739C93.8969 9.48385 93.6403 10.72 93.4633 11.4983L92.6227 15.0695H91.2865L90.4813 11.5533C90.2955 10.7475 90.0389 9.50217 89.8884 8.41251H89.853C89.8265 9.50217 89.7557 10.7658 89.7115 11.7547L89.5433 15.2252H87.9329L88.6319 5.2168H90.614L91.3839 8.84288C91.6493 10.1157 91.8971 11.2145 92.0652 12.3499H92.1006C92.2511 11.242 92.4634 10.1065 92.72 8.84288L93.481 5.2168H95.4632L96.0472 15.2252H94.3659L94.1978 11.7364Z" fill="white"/>
<path d="M98.454 15.2343V11.4068L96.3303 5.22595H98.339L98.9938 7.60671C99.1796 8.25684 99.3566 8.99853 99.4982 9.73107H99.5247C99.6486 9.00769 99.799 8.28431 99.976 7.56093L100.542 5.2168H102.489L100.33 11.3244V15.2343H98.454Z" fill="white"/>
</svg>
